<svg width="40" height="48" viewBox="0 0 40 48" fill="none" xmlns="http://www.w3.org/2000/svg">
<path d="M35.3871 29.3572C34.3682 28.6766 33.3214 28.2388 32.4617 28C33.393 27.7453 34.2806 27.3035 35.0726 26.6945C36.6169 25.5085 37.7831 23.6736 38.1214 21.2896C38.1891 20.8239 38.2209 20.3423 38.2209 19.8368C38.2209 19.4229 38.197 19.0169 38.1532 18.6229C37.6119 13.8866 33.8308 10.6587 27.2318 10.6587H25.3413V0H12.1075C5.59999 0 0 3.30745 0 10.7741C0 14.7184 2.00199 17.198 4.12736 18.6189C5.16219 19.3114 6.22488 19.7572 7.09653 20.004C6.1811 20.2587 5.3015 20.6846 4.51742 21.2856C2.9612 22.4677 1.78308 24.3025 1.44079 26.6906C1.36915 27.1642 1.33732 27.6537 1.33732 28.1672C1.33732 28.5731 1.35721 28.9672 1.40099 29.3532C1.93034 34.1055 5.71544 37.3453 12.3264 37.3453H14.2169V48H27.4508C33.9582 48 39.5582 44.6925 39.5582 37.2259C39.5542 33.2577 37.5244 30.7741 35.3871 29.3572ZM2.98508 10.6189C2.98508 5.12637 7.09253 2.67064 12.004 2.67064H22.5114V10.6627H14.2129V18.6229H13.5483C6.02984 18.6229 2.98508 15.3672 2.98508 10.6189ZM22.5114 18.6229H17.0388V13.3294H22.5114V18.6229ZM14.2129 34.6786H12.1632C7.59005 34.6786 5.05871 32.394 4.49354 29.3572C4.41393 28.9234 4.37413 28.4736 4.37413 28.0119C4.37413 27.5503 4.40199 27.1124 4.46169 26.6945C4.94328 23.204 7.51841 21.2896 13.2856 21.2896H25.3453V13.3294H27.395C31.9562 13.3294 34.4876 15.602 35.0567 18.6229C35.1443 19.0647 35.1841 19.5264 35.1841 19.996C35.1841 20.4498 35.1562 20.8796 35.1005 21.2896C34.6587 24.5612 32.3901 26.4557 27.3911 26.6945C27.0328 26.7104 26.6587 26.7184 26.2726 26.7184H17.0428V26.6945H14.2129V34.6786ZM27.5503 45.3373H17.0428V37.3493H25.3413V29.3851H22.5114V34.6786H17.0388V29.3851H22.5114V29.3572H25.3413V29.3851H26.006C33.5284 29.3851 36.5692 32.6408 36.5692 37.3891C36.5692 42.8856 32.4577 45.3373 27.5503 45.3373Z" fill="#D9B982"/>
</svg>
