<svg width="33" height="32" viewBox="0 0 33 32" fill="none" xmlns="http://www.w3.org/2000/svg">
<g id="noun-fabric-3969058 3">
<g id="Group">
<path id="Vector" d="M14.939 8.00554C15.1453 8.21147 15.4397 8.329 15.7049 8.329C15.9699 8.329 16.2646 8.21147 16.4707 8.00554L20.5952 3.91834C21.037 3.47736 21.037 2.80092 20.5952 2.35991C20.1534 1.91893 19.4757 1.91893 19.0338 2.35991L14.939 6.44711C14.5265 6.88809 14.5265 7.56453 14.939 8.00554Z" stroke="#E2E2E2" stroke-width="0.5"/>
<path id="Vector_2" d="M11.6689 11.2695C11.2271 10.8285 10.5494 10.8285 10.1076 11.2695L8.5462 12.8279C8.10439 13.2689 8.10439 13.9453 8.5462 14.3863C8.75252 14.5922 9.04699 14.7098 9.3121 14.7098C9.5772 14.7098 9.87188 14.5922 10.078 14.3863L11.6393 12.8279C12.1107 12.3869 12.1107 11.6811 11.6689 11.2695Z" stroke="#E2E2E2" stroke-width="0.5"/>
<path id="Vector_3" d="M3.74455 17.6502L2.83136 18.5617C2.38955 19.0026 2.38955 19.6791 2.83136 20.1201C3.03747 20.2967 3.33214 20.4142 3.59725 20.4142C3.89193 20.4142 4.15704 20.2967 4.36315 20.0907L5.27634 19.1793C5.71815 18.7383 5.71815 18.0619 5.27634 17.6208C4.86412 17.2092 4.15704 17.2092 3.7446 17.6502H3.74455Z" stroke="#E2E2E2" stroke-width="0.5"/>
<path id="Vector_4" d="M11.6704 17.6501C11.2286 17.2091 10.5509 17.2091 10.1091 17.6501L6.01422 21.7373C5.57241 22.1783 5.57241 22.8547 6.01422 23.2957C6.22053 23.5016 6.515 23.6192 6.78011 23.6192C7.07479 23.6192 7.3399 23.5016 7.54601 23.2957L11.6409 19.2085C12.1123 18.7675 12.1123 18.0617 11.6704 17.6501Z" stroke="#E2E2E2" stroke-width="0.5"/>
<path id="Vector_5" d="M16.5006 11.2695L14.9393 12.8279C14.4975 13.2689 14.4975 13.9453 14.9393 14.3863C15.1456 14.5922 15.4401 14.7098 15.7052 14.7098C15.9703 14.7098 16.2649 14.5922 16.4711 14.3863L18.0324 12.8279C18.4742 12.3869 18.4742 11.7105 18.0324 11.2695C17.6202 10.8285 16.9425 10.8285 16.5007 11.2695H16.5006Z" stroke="#E2E2E2" stroke-width="0.5"/>
<path id="Vector_6" d="M22.0965 8.32906C22.3912 8.32906 22.6563 8.21153 22.8624 8.0056L23.7756 7.09412C24.2174 6.65314 24.2174 5.9767 23.7756 5.53569C23.3338 5.09471 22.6561 5.09471 22.2143 5.53569L21.3011 6.44717C20.8593 6.88815 20.8593 7.56459 21.3011 8.0056C21.537 8.21153 21.8315 8.32906 22.0965 8.32906Z" stroke="#E2E2E2" stroke-width="0.5"/>
<path id="Vector_7" d="M18.0616 24.0016C17.6198 23.5607 16.942 23.5607 16.5002 24.0016L12.4053 28.0888C11.9635 28.5298 11.9635 29.2062 12.4053 29.6473C12.6116 29.8532 12.9061 29.9707 13.1712 29.9707C13.4363 29.9707 13.731 29.8532 13.9371 29.6473L18.032 25.5601C18.474 25.1191 18.474 24.4426 18.0616 24.0016Z" stroke="#E2E2E2" stroke-width="0.5"/>
<path id="Vector_8" d="M22.0965 21.0612C22.3912 21.0612 22.6563 20.9437 22.8624 20.7378L24.4238 19.1793C24.8656 18.7383 24.8656 18.0619 24.4238 17.6209C23.982 17.1799 23.3043 17.1799 22.8624 17.6209L21.3011 19.1793C20.8593 19.6203 20.8593 20.2967 21.3011 20.7378C21.537 20.9435 21.8315 21.0612 22.0965 21.0612Z" stroke="#E2E2E2" stroke-width="0.5"/>
<path id="Vector_9" d="M28.4896 14.6803C28.7843 14.6803 29.0494 14.5627 29.2555 14.3568L30.1687 13.4453C30.6105 13.0043 30.6105 12.3279 30.1687 11.8869C29.7269 11.4459 29.0492 11.4459 28.6073 11.8869L27.6941 12.7984C27.2523 13.2393 27.2523 13.9158 27.6941 14.3568C27.9299 14.5921 28.2243 14.6803 28.4896 14.6803Z" stroke="#E2E2E2" stroke-width="0.5"/>
<path id="Vector_10" d="M21.3303 14.357C21.5366 14.5629 21.8311 14.6804 22.0962 14.6804C22.3613 14.6804 22.656 14.5629 22.8621 14.357L26.957 10.2698C27.3988 9.8288 27.3988 9.15236 26.957 8.71135C26.5152 8.27037 25.8375 8.27037 25.3956 8.71135L21.3304 12.8278C20.8886 13.2395 20.8886 13.9453 21.3304 14.3569L21.3303 14.357Z" stroke="#E2E2E2" stroke-width="0.5"/>
<path id="Vector_11" d="M16.5006 20.7378L18.062 19.1793C18.5038 18.7383 18.5038 18.0619 18.062 17.6209C17.6202 17.1799 16.9425 17.1799 16.5006 17.6209L14.9393 19.1793C14.4975 19.6203 14.4975 20.2967 14.9393 20.7378C15.1456 20.9437 15.4401 21.0612 15.7052 21.0612C15.9705 21.0612 16.2943 20.9435 16.5006 20.7378Z" stroke="#E2E2E2" stroke-width="0.5"/>
<path id="Vector_12" d="M10.1083 24.0015L9.19513 24.913C8.75332 25.3539 8.75332 26.0304 9.19513 26.4714C9.40144 26.6773 9.69591 26.7949 9.96102 26.7949C10.2557 26.7949 10.5208 26.6773 10.7269 26.4714L11.6401 25.5599C12.0819 25.1189 12.0819 24.4425 11.6401 24.0015C11.2279 23.5898 10.5502 23.5898 10.1084 24.0015H10.1083Z" stroke="#E2E2E2" stroke-width="0.5"/>
<path id="Vector_13" d="M26.0746 14.4451C25.6328 14.0041 24.9551 14.0041 24.5132 14.4451C24.0714 14.8861 24.0714 15.5625 24.5132 16.0035L28.6081 20.0907C28.8144 20.2967 29.1089 20.4142 29.374 20.4142C29.6391 20.4142 29.9338 20.2967 30.1399 20.0907C30.5817 19.6498 30.5817 18.9733 30.1399 18.5323L26.0746 14.4451Z" stroke="#E2E2E2" stroke-width="0.5"/>
<path id="Vector_14" d="M19.6832 11.1814C19.8895 11.3873 20.184 11.5048 20.4491 11.5048C20.7438 11.5048 21.0089 11.3873 21.215 11.1814C21.6568 10.7404 21.6568 10.0639 21.215 9.62293L19.6832 8.0645C19.2414 7.62352 18.5637 7.62352 18.1219 8.0645C17.6801 8.50548 17.6801 9.18192 18.1219 9.62293L19.6832 11.1814Z" stroke="#E2E2E2" stroke-width="0.5"/>
<path id="Vector_15" d="M13.319 4.80064C13.5254 5.00657 13.8198 5.1241 14.0849 5.1241C14.35 5.1241 14.6447 5.00657 14.8508 4.80064C15.2926 4.35966 15.2926 3.68323 14.8508 3.24222L13.9376 2.33074C13.4958 1.88975 12.8181 1.88975 12.3763 2.33074C11.9345 2.77172 11.9345 3.44815 12.3763 3.88916L13.319 4.80064Z" stroke="#E2E2E2" stroke-width="0.5"/>
<path id="Vector_16" d="M13.3194 11.1813C13.5257 11.3872 13.8201 11.5048 14.0853 11.5048C14.3504 11.5048 14.645 11.3872 14.8511 11.1813C15.293 10.7403 15.293 10.0639 14.8511 9.62289L10.7565 5.53569C10.3147 5.09471 9.63697 5.09471 9.19513 5.53569C8.75332 5.97667 8.75332 6.65311 9.19513 7.09412L13.3194 11.1813Z" stroke="#E2E2E2" stroke-width="0.5"/>
<path id="Vector_17" d="M20.4787 17.8854C20.7734 17.8854 21.0385 17.7679 21.2446 17.562C21.6864 17.121 21.6864 16.4446 21.2446 16.0035L19.6832 14.4451C19.2414 14.0041 18.5637 14.0041 18.1219 14.4451C17.6801 14.8861 17.6801 15.5625 18.1219 16.0035L19.6832 17.562C19.9189 17.7679 20.184 17.8854 20.4787 17.8854Z" stroke="#E2E2E2" stroke-width="0.5"/>
<path id="Vector_18" d="M26.0746 20.8259C25.6328 20.3849 24.9551 20.3849 24.5132 20.8259C24.0714 21.2668 24.0714 21.9433 24.5132 22.3843L25.4264 23.2958C25.6328 23.5017 25.9272 23.6192 26.1923 23.6192C26.4574 23.6192 26.7521 23.5017 26.9582 23.2958C27.4 22.8548 27.4 22.1783 26.9582 21.7373L26.0746 20.8259Z" stroke="#E2E2E2" stroke-width="0.5"/>
<path id="Vector_19" d="M6.92618 17.5619C7.1325 17.7679 7.42697 17.8854 7.69208 17.8854C7.95716 17.8854 8.25186 17.7679 8.45797 17.5619C8.89978 17.121 8.89978 16.4445 8.45797 16.0035L4.39271 11.9163C3.9509 11.4753 3.2732 11.4753 2.83136 11.9163C2.38955 12.3573 2.38955 13.0337 2.83136 13.4747L6.92618 17.5619Z" stroke="#E2E2E2" stroke-width="0.5"/>
<path id="Vector_20" d="M11.7582 22.3843L13.3196 23.9427C13.5259 24.1486 13.8204 24.2662 14.0855 24.2662C14.3506 24.2662 14.6453 24.1486 14.8514 23.9427C15.2932 23.5017 15.2932 22.8253 14.8514 22.3843L13.29 20.8259C12.8482 20.3849 12.1705 20.3849 11.7287 20.8259C11.3164 21.2668 11.3164 21.9433 11.7582 22.3843Z" stroke="#E2E2E2" stroke-width="0.5"/>
<path id="Vector_21" d="M19.6832 27.2065C19.2414 26.7655 18.5637 26.7655 18.1219 27.2065C17.6801 27.6474 17.6801 28.3239 18.1219 28.7649L19.0351 29.6764C19.2414 29.8823 19.5359 29.9998 19.801 29.9998C20.0661 29.9998 20.3608 29.8823 20.5669 29.6764C21.0087 29.2354 21.0087 28.559 20.5669 28.1179L19.6832 27.2065Z" stroke="#E2E2E2" stroke-width="0.5"/>
<path id="Vector_22" d="M19.6832 20.8259C19.2414 20.3849 18.5637 20.3849 18.1219 20.8259C17.6801 21.2668 17.6801 21.9433 18.1219 22.3843L22.2168 26.4715C22.4231 26.6774 22.7175 26.7949 22.9827 26.7949C23.2477 26.7949 23.5424 26.6774 23.7486 26.4715C24.1904 26.0305 24.1904 25.3541 23.7486 24.9131L19.6832 20.8259Z" stroke="#E2E2E2" stroke-width="0.5"/>
<path id="Vector_23" d="M13.318 17.562C13.5243 17.7679 13.8188 17.8854 14.0839 17.8854C14.349 17.8854 14.6437 17.7679 14.8498 17.562C15.2916 17.121 15.2916 16.4446 14.8498 16.0035L13.2885 14.4451C12.8467 14.0041 12.1689 14.0041 11.7271 14.4451C11.2853 14.8861 11.2853 15.5625 11.7271 16.0035L13.318 17.562Z" stroke="#E2E2E2" stroke-width="0.5"/>
<path id="Vector_24" d="M6.92597 11.1813C7.13229 11.3872 7.42676 11.5047 7.69187 11.5047C7.95695 11.5047 8.25165 11.3872 8.45776 11.1813C8.89957 10.7403 8.89957 10.0638 8.45776 9.62283L7.54457 8.71135C7.10276 8.27037 6.42505 8.27037 5.98321 8.71135C5.5414 9.15233 5.5414 9.82877 5.98321 10.2698L6.92597 11.1813Z" stroke="#E2E2E2" stroke-width="0.5"/>
</g>
</g>
</svg>
