<svg width="24" height="24" viewBox="0 0 24 24" fill="none" xmlns="http://www.w3.org/2000/svg">
<g id="noun-fabric-3969058 3">
<g id="Group">
<path id="Vector" d="M11.6966 5.72L11.6954 5.72116C11.6152 5.80131 11.4956 5.84672 11.4037 5.84672C11.3137 5.84672 11.197 5.80314 11.1166 5.72569C10.9572 5.5501 10.9575 5.28806 11.1175 5.11282L14.183 2.05302C14.183 2.05302 14.183 2.05301 14.183 2.05301C14.3583 1.87812 14.6137 1.87814 14.7889 2.05301C14.9635 2.22736 14.9637 2.48073 14.7893 2.65517C14.7892 2.65532 14.789 2.65547 14.7889 2.65562L11.6966 5.72Z" stroke="white" stroke-width="0.8"/>
<path id="Vector_2" d="M8.09411 8.7352L8.09394 8.73537L8.104 8.74474C8.25786 8.8881 8.27365 9.14882 8.08125 9.3288L8.08111 9.32865L8.07193 9.33781L6.90092 10.5066L6.90078 10.5068C6.82055 10.5869 6.70097 10.6323 6.60907 10.6323C6.51729 10.6323 6.39776 10.587 6.31724 10.5066C6.14243 10.3321 6.14244 10.0785 6.31723 9.90402L7.48823 8.73521C7.48824 8.73521 7.48824 8.7352 7.48824 8.7352C7.66348 8.56031 7.91891 8.56033 8.09411 8.7352Z" stroke="white" stroke-width="0.8"/>
<path id="Vector_3" d="M2.61478 14.785L2.61464 14.7852C2.53022 14.8695 2.43126 14.9107 2.32294 14.9107C2.23248 14.9107 2.10892 14.8667 2.0203 14.7959C1.85637 14.6219 1.85998 14.3752 2.03109 14.2044L2.59888 13.6377H2.60703L2.72559 13.5109C2.87844 13.3475 3.14824 13.3476 3.29961 13.4987L3.29967 13.4988C3.47448 13.6733 3.47447 13.9269 3.29968 14.1014L2.61478 14.785Z" stroke="white" stroke-width="0.8"/>
<path id="Vector_4" d="M8.09503 13.5208L8.0952 13.5207C7.92 13.3458 7.66458 13.3458 7.48934 13.5207C7.48933 13.5207 7.48933 13.5207 7.48933 13.5207L4.41818 16.5861C4.2434 16.7605 4.24338 17.0142 4.41818 17.1887L8.09503 13.5208ZM8.09503 13.5208L8.10509 13.5302M8.09503 13.5208L8.10509 13.5302M8.10509 13.5302C8.25895 13.6736 8.27474 13.9343 8.08234 14.1143L8.0822 14.1141L8.07303 14.1233L5.00187 17.1887L5.00173 17.1888M8.10509 13.5302L5.00173 17.1888M5.00173 17.1888C4.9173 17.2732 4.81835 17.3144 4.71002 17.3144C4.61824 17.3144 4.49871 17.269 4.41819 17.1887L5.00173 17.1888Z" stroke="white" stroke-width="0.8"/>
<path id="Vector_5" d="M11.6957 10.5066L11.6956 10.5068C11.6154 10.5869 11.4958 10.6323 11.4039 10.6323C11.3121 10.6323 11.1926 10.587 11.112 10.5066C10.9372 10.3321 10.9372 10.0785 11.112 9.90402L12.1659 8.85209H12.166L12.2831 8.73519C12.4639 8.5547 12.7113 8.56926 12.8571 8.72524L12.8569 8.72541L12.8667 8.73519C13.0415 8.90969 13.0415 9.16335 12.8667 9.33781L11.6957 10.5066Z" stroke="white" stroke-width="0.8"/>
<path id="Vector_6" d="M16.4892 5.7212L16.4894 5.72106L17.1743 5.03745C17.3491 4.863 17.3491 4.60934 17.1743 4.43485L16.4892 5.7212ZM16.4892 5.7212C16.4048 5.80555 16.3059 5.84676 16.1975 5.84676M16.4892 5.7212L16.1975 5.84676M16.1975 5.84676C16.1122 5.84676 15.9872 5.80615 15.8744 5.71176C15.7088 5.53765 15.7118 5.28984 15.8835 5.11846L16.5684 4.43486C16.5684 4.43485 16.5684 4.43485 16.5684 4.43485M16.1975 5.84676L16.5684 4.43485M16.5684 4.43485C16.7436 4.25996 16.9991 4.25998 17.1743 4.43484L16.5684 4.43485Z" stroke="white" stroke-width="0.8"/>
<path id="Vector_7" d="M9.79506 21.9525L9.7952 21.9523L12.8664 18.8869L12.8664 18.8869C13.0413 18.7124 13.0429 18.4547 12.8836 18.2795C12.7086 18.1095 12.4563 18.1111 12.2827 18.2843C12.2827 18.2843 12.2827 18.2843 12.2827 18.2843L9.21151 21.3497C9.03673 21.5242 9.03671 21.7778 9.21151 21.9523L9.79506 21.9525ZM9.79506 21.9525C9.71484 22.0326 9.59526 22.078 9.50336 22.078C9.41157 22.078 9.29204 22.0327 9.21152 21.9523L9.79506 21.9525Z" stroke="white" stroke-width="0.8"/>
<path id="Vector_8" d="M16.4894 15.2702L16.4892 15.2704C16.4048 15.3547 16.3059 15.3959 16.1975 15.3959C16.1124 15.3959 15.9873 15.3553 15.8744 15.2609C15.7088 15.0868 15.7118 14.839 15.8835 14.6676L17.0545 13.4988C17.0545 13.4988 17.0545 13.4988 17.0545 13.4988C17.2298 13.3239 17.4852 13.3239 17.6604 13.4988C17.8352 13.6733 17.8352 13.927 17.6604 14.1014L16.4894 15.2702Z" stroke="white" stroke-width="0.8"/>
<path id="Vector_9" d="M21.2839 10.4847L21.2841 10.4846L21.9689 9.80094C22.1437 9.62648 22.1437 9.37283 21.9689 9.19833L21.2839 10.4847ZM21.2839 10.4847C21.1995 10.569 21.1005 10.6103 20.9922 10.6103M21.2839 10.4847L20.9922 10.6103M20.9922 10.6103C20.8806 10.6103 20.7677 10.5739 20.6782 10.4846C20.5034 10.3101 20.5034 10.0564 20.6782 9.88195L21.3631 9.19834C21.3631 9.19834 21.3631 9.19834 21.3631 9.19833M20.9922 10.6103L21.3631 9.19833M21.3631 9.19833C21.5383 9.02345 21.7937 9.02346 21.9689 9.19832L21.3631 9.19833Z" stroke="white" stroke-width="0.8"/>
<path id="Vector_10" d="M15.9296 10.507C16.0086 10.5734 16.1142 10.6104 16.1972 10.6104C16.2891 10.6104 16.4087 10.565 16.4889 10.4848L16.489 10.4847L19.5602 7.41929C19.735 7.24483 19.735 6.99118 19.5602 6.81668L15.9296 10.507ZM15.9296 10.507L15.8955 10.4751C15.7339 10.3245 15.7339 10.0642 15.8955 9.9136L15.9015 9.90793L15.9074 9.90201L18.9552 6.81581C19.1304 6.6418 19.3852 6.6421 19.5602 6.81667L15.9296 10.507Z" stroke="white" stroke-width="0.8"/>
<path id="Vector_11" d="M12.8889 14.1014L11.718 15.2701C11.718 15.2701 11.718 15.2701 11.718 15.2702C11.6448 15.3431 11.5066 15.3959 11.4039 15.3959C11.3121 15.3959 11.1926 15.3506 11.112 15.2702C10.9372 15.0958 10.9372 14.8421 11.112 14.6676L10.8295 14.3845L11.112 14.6676L12.283 13.4988C12.283 13.4988 12.283 13.4988 12.283 13.4988C12.4583 13.3239 12.7137 13.3239 12.8889 13.4988C13.0637 13.6733 13.0637 13.927 12.8889 14.1014Z" stroke="white" stroke-width="0.8"/>
<path id="Vector_12" d="M7.38747 19.5705L7.38761 19.5704L8.0725 18.8868C8.24729 18.7123 8.24731 18.4587 8.07249 18.2842L8.07243 18.2841C7.92565 18.1375 7.66591 18.1232 7.48282 18.2902L6.80392 18.9678C6.62914 19.1423 6.62912 19.3959 6.80392 19.5704L7.38747 19.5705ZM7.38747 19.5705C7.30305 19.6549 7.20409 19.6961 7.09577 19.6961C7.00398 19.6961 6.88445 19.6508 6.80393 19.5704L7.38747 19.5705Z" stroke="white" stroke-width="0.8"/>
<path id="Vector_13" d="M21.9472 14.7851L21.9473 14.785C22.1221 14.6105 22.1221 14.3569 21.9473 14.1824L21.9463 14.1814L18.8983 11.117C18.8982 11.1168 18.898 11.1167 18.8979 11.1165C18.7227 10.9421 18.4675 10.9422 18.2924 11.117L21.9472 14.7851ZM21.9472 14.7851C21.8669 14.8653 21.7473 14.9107 21.6554 14.9107C21.5637 14.9107 21.4441 14.8653 21.3636 14.785L18.2925 11.7196C18.2925 11.7196 18.2925 11.7196 18.2924 11.7196M21.9472 14.7851L18.2924 11.7196M18.2924 11.7196C18.1176 11.5451 18.1177 11.2914 18.2924 11.117L18.2924 11.7196Z" stroke="white" stroke-width="0.8"/>
<path id="Vector_14" d="M15.2536 8.10308L15.2538 8.10294C15.4286 7.92848 15.4286 7.67482 15.2538 7.50032L15.2511 7.49763L15.2511 7.49762L14.1038 6.33036C13.9287 6.15664 13.674 6.15701 13.4991 6.33151L15.2536 8.10308ZM15.2536 8.10308C15.1692 8.18743 15.0703 8.22864 14.9619 8.22864C14.8702 8.22864 14.7506 8.18331 14.6701 8.10294M15.2536 8.10308L14.6701 8.10294M14.6701 8.10294C14.6701 8.10294 14.6701 8.10294 14.6701 8.10294M14.6701 8.10294L14.6701 8.10294M14.6701 8.10294L13.4991 6.93413L13.4991 6.93412L14.6701 8.10294Z" stroke="white" stroke-width="0.8"/>
<path id="Vector_15" d="M9.89677 3.31734L9.89673 3.31738C9.97725 3.39774 10.0968 3.44308 10.1886 3.44308C10.2805 3.44308 10.4001 3.39767 10.4803 3.31752L10.4804 3.31738C10.6552 3.14292 10.6552 2.88927 10.4804 2.71477C10.4804 2.71477 10.4804 2.71476 10.4804 2.71476L9.79553 2.03116C9.62033 1.85629 9.3649 1.85627 9.18966 2.03116L9.89677 3.31734ZM9.89677 3.31734L9.89219 3.31291M9.89677 3.31734L9.89219 3.31291M9.89219 3.31291L9.18775 2.63184M9.89219 3.31291L9.18775 2.63184M9.18775 2.63184C9.01487 2.45741 9.01552 2.20499 9.18965 2.03117L9.18775 2.63184Z" stroke="white" stroke-width="0.8"/>
<path id="Vector_16" d="M9.89608 8.10184L9.8971 8.10285C9.97761 8.18322 10.0972 8.22855 10.1889 8.22855C10.2808 8.22855 10.4004 8.18314 10.4806 8.10299L10.4808 8.10285C10.6556 7.92839 10.6556 7.67473 10.4808 7.50024C10.4808 7.50024 10.4808 7.50024 10.4808 7.50024M9.89608 8.10184L10.7634 7.21714L10.4808 7.50024M9.89608 8.10184L6.80393 5.03746C6.80379 5.03732 6.80365 5.03718 6.8035 5.03703C6.62912 4.86255 6.62928 4.60917 6.80391 4.43486L9.89608 8.10184ZM10.4808 7.50024L7.40978 4.43485M10.4808 7.50024L7.40978 4.43485M7.40978 4.43485C7.40978 4.43484 7.40978 4.43484 7.40978 4.43484M7.40978 4.43485L7.40978 4.43484M7.40978 4.43484C7.23458 4.25998 6.97916 4.25996 6.80392 4.43485L7.40978 4.43484Z" stroke="white" stroke-width="0.8"/>
<path id="Vector_17" d="M15.2758 12.8885L15.276 12.8884C15.4508 12.7139 15.4508 12.4603 15.276 12.2858C15.276 12.2858 15.276 12.2858 15.276 12.2858L14.105 11.117C13.9298 10.9421 13.6744 10.9421 13.4991 11.117L15.2758 12.8885ZM15.2758 12.8885C15.1914 12.9729 15.0925 13.0141 14.9841 13.0141M15.2758 12.8885L14.9841 13.0141M14.9841 13.0141C14.8816 13.0141 14.7759 12.9768 14.6599 12.8782L13.4991 11.7196C13.4991 11.7196 13.4991 11.7196 13.4991 11.7196M14.9841 13.0141L13.4991 11.7196M13.4991 11.7196C13.3243 11.5451 13.3243 11.2914 13.4991 11.117L13.4991 11.7196Z" stroke="white" stroke-width="0.8"/>
<path id="Vector_18" d="M19.5609 17.1889L19.561 17.1887C19.7358 17.0143 19.7358 16.7606 19.561 16.5861L19.5564 16.5815L19.5564 16.5814L18.8963 15.9005C18.7212 15.7276 18.467 15.7283 18.2924 15.9025L19.5609 17.1889ZM19.5609 17.1889C19.4807 17.269 19.3611 17.3144 19.2692 17.3144C19.1774 17.3144 19.0579 17.2691 18.9773 17.1887L18.2925 16.5051C18.2925 16.5051 18.2925 16.5051 18.2924 16.5051M19.5609 17.1889L18.2924 16.5051M18.2924 16.5051C18.1176 16.3306 18.1177 16.077 18.2924 15.9025L18.2924 16.5051Z" stroke="white" stroke-width="0.8"/>
<path id="Vector_19" d="M5.68576 12.8885L5.6859 12.8884C5.86069 12.7139 5.8607 12.4603 5.68589 12.2858L5.68487 12.2847L2.63696 9.22037C2.63681 9.22023 2.63667 9.22008 2.63653 9.21994C2.46134 9.0455 2.20619 9.04562 2.03109 9.22037L5.68576 12.8885ZM5.68576 12.8885C5.60554 12.9687 5.48594 13.0141 5.39406 13.0141C5.30227 13.0141 5.18273 12.9687 5.10221 12.8884M5.68576 12.8885L5.10221 12.8884M5.10221 12.8884L2.0311 9.82298C2.0311 9.82298 2.0311 9.82298 2.0311 9.82298M5.10221 12.8884L2.0311 9.82298M2.0311 9.82298C1.8563 9.64848 1.85631 9.39484 2.03108 9.22038L2.0311 9.82298Z" stroke="white" stroke-width="0.8"/>
<path id="Vector_20" d="M10.481 17.6739L10.4809 17.6741C10.4006 17.7542 10.2811 17.7996 10.1892 17.7996C10.0974 17.7996 9.97784 17.7543 9.89732 17.6739L8.72631 16.5051C8.72631 16.5051 8.72631 16.5051 8.7263 16.5051C8.55153 16.3306 8.54992 16.0728 8.70909 15.8976C8.88416 15.7276 9.13644 15.7293 9.30999 15.9025L10.481 17.0713C10.481 17.0713 10.481 17.0713 10.481 17.0713C10.6558 17.2458 10.6558 17.4995 10.481 17.6739Z" stroke="white" stroke-width="0.8"/>
<path id="Vector_21" d="M14.7676 21.9744L14.7677 21.9742C14.9425 21.7998 14.9425 21.5461 14.7677 21.3716L14.763 21.367L14.7631 21.3669L14.103 20.686C13.9278 20.5132 13.6737 20.5138 13.4991 20.688L14.7676 21.9744ZM14.7676 21.9744C14.6873 22.0545 14.5678 22.0999 14.4759 22.0999C14.3841 22.0999 14.2645 22.0546 14.184 21.9742L13.4991 21.2906C13.4991 21.2906 13.4991 21.2906 13.4991 21.2906M14.7676 21.9744L13.4991 21.2906M13.4991 21.2906C13.3243 21.1161 13.3243 20.8625 13.4991 20.688L13.4991 21.2906Z" stroke="white" stroke-width="0.8"/>
<path id="Vector_22" d="M17.1538 19.5706L17.154 19.5705C17.3287 19.396 17.3288 19.1424 17.1539 18.9679L17.1529 18.9669L14.105 15.9025C14.1048 15.9024 14.1047 15.9022 14.1045 15.9021C13.9293 15.7276 13.6742 15.7278 13.4991 15.9025L17.1538 19.5706ZM17.1538 19.5706C17.0736 19.6508 16.954 19.6962 16.8621 19.6962C16.7703 19.6962 16.6508 19.6509 16.5703 19.5705L13.4991 16.5051C13.4991 16.5051 13.4991 16.5051 13.4991 16.5051M17.1538 19.5706L13.4991 16.5051M13.4991 16.5051C13.3243 16.3306 13.3243 16.077 13.4991 15.9025L13.4991 16.5051Z" stroke="white" stroke-width="0.8"/>
<path id="Vector_23" d="M9.89617 12.8884L9.89616 12.8884C9.97668 12.9688 10.0962 13.0141 10.188 13.0141C10.2799 13.0141 10.3995 12.9687 10.4797 12.8885L10.4798 12.8884C10.6546 12.7139 10.6546 12.4603 10.4798 12.2858C10.4798 12.2858 10.4798 12.2858 10.4798 12.2858L9.30883 11.117C9.13363 10.9421 8.87821 10.9421 8.70297 11.117L9.89617 12.8884ZM9.89617 12.8884L9.89349 12.8858M9.89617 12.8884L9.89349 12.8858M9.89349 12.8858L8.70184 11.7184C8.52817 11.544 8.52856 11.2911 8.70296 11.117L9.89349 12.8858Z" stroke="white" stroke-width="0.8"/>
<path id="Vector_24" d="M5.10209 8.10286L5.10205 8.1029C5.18257 8.18327 5.30211 8.2286 5.3939 8.2286C5.48579 8.2286 5.60538 8.18319 5.6856 8.10304L5.68574 8.1029C5.86053 7.92844 5.86055 7.67479 5.68574 7.50029C5.68574 7.50029 5.68574 7.50029 5.68573 7.50028L5.00085 6.81668C4.82565 6.64181 4.57023 6.64179 4.39499 6.81668L5.10209 8.10286ZM5.10209 8.10286L5.09751 8.09843M5.10209 8.10286L5.09751 8.09843M5.09751 8.09843L4.39306 7.41736C4.22019 7.24293 4.22085 6.99051 4.39498 6.81669L5.09751 8.09843Z" stroke="white" stroke-width="0.8"/>
</g>
</g>
</svg>
