<svg width="33" height="32" viewBox="0 0 33 32" fill="none" xmlns="http://www.w3.org/2000/svg">
<g id="database">
<path id="Vector" d="M11.1667 16C11.1667 9.37258 9.37589 4 7.16675 4C4.95761 4 3.16675 9.37258 3.16675 16C3.16675 22.6274 4.95761 28 7.16675 28C9.37589 28 11.1667 22.6274 11.1667 16Z" stroke="#E2E2E2" stroke-width="1.2" stroke-linecap="round" stroke-linejoin="round"/>
<path id="Vector_2" d="M16.5 4C18.7133 4 20.5 9.33333 20.5 16C20.5 22.6667 18.7133 28 16.5 28" stroke="#E2E2E2" stroke-width="1.2" stroke-linecap="round" stroke-linejoin="round"/>
<path id="Vector_3" d="M21.5 4C23.7133 4 25.5 9.33333 25.5 16C25.5 22.6667 23.7133 28 21.5 28" stroke="#E2E2E2" stroke-width="1.2" stroke-linecap="round" stroke-linejoin="round"/>
<path id="Vector_4" d="M12.5 4C14.7133 4 16.5 9.33333 16.5 16C16.5 22.6667 14.7133 28 12.5 28" stroke="#E2E2E2" stroke-width="1.2" stroke-linecap="round" stroke-linejoin="round"/>
<path id="Vector_5" d="M7.16675 28H25.8334C28.0467 28 29.8334 22.6667 29.8334 16C29.8334 9.33333 28.0467 4 25.8334 4H7.16675" stroke="#E2E2E2" stroke-width="1.2" stroke-linecap="round" stroke-linejoin="round"/>
</g>
</svg>
