<svg width="33" height="32" viewBox="0 0 33 32" fill="none" xmlns="http://www.w3.org/2000/svg">
<g clip-path="url(#clip0_65_9564)">
<path d="M9.49992 11.9167C11.1107 11.9167 12.4166 10.6109 12.4166 9.00004C12.4166 7.38921 11.1107 6.08337 9.49992 6.08337C7.88909 6.08337 6.58325 7.38921 6.58325 9.00004C6.58325 10.6109 7.88909 11.9167 9.49992 11.9167Z" stroke="#E2E2E2" stroke-width="1.2" stroke-linecap="round" stroke-linejoin="round"/>
<path d="M9.5 2.58337V3.75004" stroke="#E2E2E2" stroke-width="1.2" stroke-linecap="round" stroke-linejoin="round"/>
<path d="M9.5 14.25V15.4167" stroke="#E2E2E2" stroke-width="1.2" stroke-linecap="round" stroke-linejoin="round"/>
<path d="M4.96167 4.46167L5.79 5.29" stroke="#E2E2E2" stroke-width="1.2" stroke-linecap="round" stroke-linejoin="round"/>
<path d="M13.21 12.71L14.0383 13.5383" stroke="#E2E2E2" stroke-width="1.2" stroke-linecap="round" stroke-linejoin="round"/>
<path d="M3.08325 9H4.24992" stroke="#E2E2E2" stroke-width="1.2" stroke-linecap="round" stroke-linejoin="round"/>
<path d="M14.75 9H15.9167" stroke="#E2E2E2" stroke-width="1.2" stroke-linecap="round" stroke-linejoin="round"/>
<path d="M4.96167 13.5383L5.79 12.71" stroke="#E2E2E2" stroke-width="1.2" stroke-linecap="round" stroke-linejoin="round"/>
<path d="M13.21 5.29L14.0383 4.46167" stroke="#E2E2E2" stroke-width="1.2" stroke-linecap="round" stroke-linejoin="round"/>
</g>
<path d="M22.0942 18.6775C22.2298 18.5412 22.3969 18.4405 22.5807 18.3843C22.7645 18.3281 22.9593 18.3182 23.1479 18.3555C23.3365 18.3928 23.5129 18.4761 23.6615 18.598C23.8101 18.7199 23.9263 18.8766 23.9998 19.0542C24.0732 19.2319 24.1016 19.4249 24.0825 19.6162C24.0634 19.8074 23.9973 19.991 23.8901 20.1505C23.783 20.3101 23.638 20.4407 23.4682 20.5308C23.2984 20.6208 23.109 20.6675 22.9167 20.6667H17.6667M23.8442 27.3225C23.9798 27.4588 24.1469 27.5596 24.3307 27.6157C24.5145 27.6719 24.7093 27.6818 24.8979 27.6445C25.0865 27.6073 25.2629 27.524 25.4115 27.4021C25.5601 27.2802 25.6763 27.1234 25.7498 26.9458C25.8232 26.7682 25.8516 26.5752 25.8325 26.3839C25.8134 26.1927 25.7473 26.0091 25.6401 25.8495C25.533 25.69 25.388 25.5593 25.2182 25.4693C25.0484 25.3793 24.859 25.3326 24.6667 25.3334H17.6667M26.8426 20.5092C27.0122 20.34 27.221 20.2151 27.4504 20.1458C27.6798 20.0764 27.9227 20.0647 28.1577 20.1115C28.3927 20.1584 28.6125 20.2625 28.7978 20.4145C28.983 20.5665 29.1279 20.7619 29.2197 20.9833C29.3114 21.2046 29.3472 21.4452 29.3239 21.6837C29.3005 21.9222 29.2188 22.1513 29.0859 22.3507C28.9529 22.55 28.7729 22.7136 28.5617 22.8269C28.3506 22.9401 28.1147 22.9996 27.8751 23H17.6667" stroke="#E2E2E2" stroke-width="1.2" stroke-linecap="round" stroke-linejoin="round"/>
<path d="M21.8462 11.033L12.6538 20.2253" stroke="#E2E2E2" stroke-width="1.2" stroke-linecap="round"/>
<defs>
<clipPath id="clip0_65_9564">
<rect width="14" height="14" fill="white" transform="translate(2.5 2)"/>
</clipPath>
</defs>
</svg>
